<svg xmlns="http://www.w3.org/2000/svg" width="75.404" height="72"><g data-name="Group 453"><path data-name="Path 833" d="M74.648 30.269a24.817 24.817 0 0 0-4.158-8.233 44.908 44.908 0 0 0-5.406-5.971C56.768 7.748 44.775 1.098 33.399.047c-6.836-.615-13.589 4.94-18.2 9.93a66.965 66.965 0 0 0-13.04 19.045c-10.1 23.819 17.3 48.735 38.14 41.8a134.728 134.728 0 0 0 19.161-8.067c11.926-6.188 18.163-18.3 15.219-32.484" fill="#f68a54"/><g data-name="Group 378"><path data-name="Path 783" d="M32.616 27.771V16.939h8.078l.087 28.412H16.635l-.1-28.412h8.175v10.832zm-5.944-1.941v-8.891h4v8.891zm-2.279 21.6a3.772 3.772 0 1 1-3.762 3.782v-.01a3.773 3.773 0 0 1 3.762-3.766zm5.712 3.772a5.732 5.732 0 0 0-1.562-3.872H44.66a5.7 5.7 0 0 0 .223 8.06q.16.151.33.289H28.02a5.68 5.68 0 0 0 2.124-4.47zm28.587-5.935v.078H42.72V31.087h1.862A14.215 14.215 0 0 1 58.73 45.274zm-13.654 5.941a3.772 3.772 0 1 1 3.782 3.762h-.021a3.771 3.771 0 0 1-3.761-3.762zM4.999 57.579h64V55.64h-16.6a5.7 5.7 0 0 0 .842-8.019 5.637 5.637 0 0 0-.289-.33h9.547v-1.939h-1.83v-.068a16.155 16.155 0 0 0-16.136-16.1h-1.861L42.623 15h-28l.1 30.352h-3.9v3.578h1.939v-1.639h7.537a5.7 5.7 0 0 0 .223 8.06q.16.151.33.289H4.999z" fill="#0b0b0b"/></g></g></svg>