<svg xmlns="http://www.w3.org/2000/svg" width="67.83" height="72"><g data-name="Group 451"><g data-name="Group 3 Copy 2-2"><path data-name="Fill 1" d="M24.582 71.794a13.307 13.307 0 0 1-14.971-8.966A187.348 187.348 0 0 1 .398 35.901a19.961 19.961 0 0 1 7.633-19.964c5.273-4.508 11.411-7.8 16.917-11.96 8.45-6.288 17-4.275 24.951.2a62.161 62.161 0 0 1 12.642 11.261 19.245 19.245 0 0 1 5.09 16.018 36.062 36.062 0 0 1-13.307 27.1c-9.165 7.286-17.915 13.64-29.775 13.224" fill="#ffc846"/></g><g transform="translate(2.699 -12.4)" fill="#0b0b0b"><path d="M47.5 17.4H15.2c-2.1 0-3.9 2.1-3.9 4.7v52c0 2.6 1.7 4.7 3.9 4.7h32.3c2.1 0 3.8-2.1 3.8-4.7v-52c0-2.6-1.7-4.7-3.8-4.7zm-32.2 1.7h32.3c1.1 0 2 1.2 2.1 2.7H13.1c.1-1.5 1.1-2.7 2.2-2.7zm34.4 55c0 1.6-1 3-2.2 3H15.2c-1.2 0-2.2-1.4-2.2-3V23.4h36.6l.1 50.7zm0-8.4H13.1v1.7h36.6z"/><g data-name="Group 450"><path d="M16.5 50.3h29.6v2H16.5zM35.9 41.8h10.3v4.1H35.9zM16.5 55.1h29.6v2H16.5zM35.8 32.4h10.4v2H35.8zM35.8 37.2h10.4v2H35.8zM25.2 47.4a8.7 8.7 0 1 0-8.7-8.7 8.706 8.706 0 0 0 8.7 8.7zm0-15.5a6.8 6.8 0 1 1-6.8 6.8 7.01 7.01 0 0 1 6.8-6.8z"/></g><circle cx="2.6" cy="2.6" r="2.6" transform="translate(28.8 69)"/></g></g></svg>