<svg xmlns="http://www.w3.org/2000/svg" width="69.119" height="72"><g data-name="Group 452"><path data-name="Path 832" d="M51.704.867A32.272 32.272 0 0 0 39.76.318C28.448 2.164 17.152 6.639 8.835 14.674A27.931 27.931 0 0 0 .351 29.163c-1.131 6.188.682 12.493 2.529 18.5a67.423 67.423 0 0 0 4.641 12.109 23.156 23.156 0 0 0 8.717 9.432c4.824 2.712 10.63 2.961 16.17 2.728 6.654-.283 13.458-1.248 19.047-4.791 7.968-4.991 12.011-14.406 14.689-23.439 2.246-7.6 3.859-15.6 2.445-23.389-1.7-9.466-8.068-16.1-16.885-19.447" fill="#7bcdce"/><g data-name="Group 356" fill="#0c0c0c"><path data-name="Path 780" d="M34.717 13.854a22.2 22.2 0 0 1 20.373 13.52l-3.78-1.76-.791 1.685 6.714 3.119 3.119-6.7-1.685-.791-1.806 3.855a24 24 0 0 0-46.149 9.214h1.86a22.172 22.172 0 0 1 22.145-22.142z"/><path data-name="Path 781" d="M34.717 58.101a22.179 22.179 0 0 1-20.541-13.855l3.864 1.8.791-1.695-6.714-3.119-3.118 6.711 1.685.782 1.769-3.8a24 24 0 0 0 46.268-8.93H56.86a22.161 22.161 0 0 1-22.143 22.106z"/><path data-name="Path 782" d="M39.866 26.489a6.5 6.5 0 0 1 2.309 5.484h1.862a8.346 8.346 0 0 0-3.045-6.965 9.6 9.6 0 0 0-5.456-1.778v-6.378h-1.862v6.406a17.473 17.473 0 0 0-3.24.577 6.517 6.517 0 0 0-5.037 6.732c.4 4.32 4.442 5.382 8.278 6.146v10.139c-2.421-.307-6.341-1.611-6.341-6.937h-1.863c0 5.9 4.162 8.38 8.2 8.8v6.437h1.862v-6.36c5.391-.14 8.473-2.542 8.473-6.658 0-5.01-4.358-6.136-8.473-6.946V25.093a7.7 7.7 0 0 1 4.333 1.396zm-6.118 8.334c-3.883-.81-6.22-1.676-6.471-4.432a4.759 4.759 0 0 1 3.678-4.767 17.026 17.026 0 0 1 2.793-.5zm1.816 2.253c4.134.857 6.611 1.806 6.611 5.047 0 3.929-3.929 4.721-6.611 4.8z"/></g></g></svg>